<svg xmlns="http://www.w3.org/2000/svg" version="1.1" xmlns:xlink="http://www.w3.org/1999/xlink" xmlns:svgjs="http://svgjs.dev/svgjs" width="1000" height="625" viewBox="0 0 1000 625"><g transform="matrix(1,0,0,1,0,0)"><svg viewBox="0 0 512 320" data-background-color="#ffffff" preserveAspectRatio="xMidYMid meet" height="625" width="1000" xmlns="http://www.w3.org/2000/svg" xmlns:xlink="http://www.w3.org/1999/xlink"><g id="tight-bounds" transform="matrix(1,0,0,1,0,0)"><svg viewBox="0 0 512 320" height="320" width="512"><g><svg></svg></g><g><svg viewBox="0 0 512 320" height="320" width="512"><g><path d="M96 160c0-88.366 71.634-160 160-160 88.366 0 160 71.634 160 160 0 88.366-71.634 160-160 160-88.366 0-160-71.634-160-160z" fill="#8040b5" fill-rule="nonzero" stroke="none" stroke-width="1" stroke-linecap="butt" stroke-linejoin="miter" stroke-miterlimit="10" stroke-dasharray="" stroke-dashoffset="0" font-family="none" font-weight="none" font-size="none" text-anchor="none" style="mix-blend-mode: normal" data-fill-palette-color="tertiary"></path></g><g transform="matrix(1,0,0,1,166.8256880733945,80)"><svg viewBox="0 0 178.348623853211 160" height="160" width="178.348623853211"><g><svg viewBox="0 0 178.348623853211 160" height="160" width="178.348623853211"><g><svg viewBox="0 0 178.348623853211 160" height="160" width="178.348623853211"><g><svg viewBox="0 0 178.348623853211 160" height="160" width="178.348623853211"><g id="textblocktransform"><svg viewBox="0 0 178.348623853211 160" height="160" width="178.348623853211" id="textblock"><g><svg viewBox="0 0 178.348623853211 160" height="160" width="178.348623853211"><g transform="matrix(1,0,0,1,0,0)"><svg width="178.348623853211" viewBox="1.45 -43.2 48.599999999999994 43.6" height="160" data-palette-color="#ffffff"><path d="M8.95 0.4Q5.75 0.4 4.13-1.13 2.5-2.65 1.98-5.18 1.45-7.7 1.45-11.65L1.45-11.65 1.55-28.15Q1.55-32.05 3.53-34.52 5.5-37 9.1-37L9.1-37Q12.65-37 14.4-34.65L14.4-34.65 14.4-43.2 23.15-43.2 23.15 0 14.4 0 14.4-3.9Q13.65-1.75 12.38-0.68 11.1 0.4 8.95 0.4L8.95 0.4ZM12.3-6.45Q13.6-6.45 14-7.73 14.4-9 14.4-11.15L14.4-11.15 14.4-12.7 14.4-26.45Q14.4-28.05 13.95-29.15 13.5-30.25 12.35-30.25L12.35-30.25Q11.05-30.25 10.63-29.23 10.2-28.2 10.2-26.45L10.2-26.45 10.2-11.05Q10.2-6.45 12.3-6.45L12.3-6.45ZM35.3 0L26.65 0 26.65-43.2 35.3-43.2 35.3-24 39.5-36.6 48.55-36.6 43.05-20.7 50.05 0 40.75 0 35.3-17.25 35.3 0Z" opacity="1" transform="matrix(1,0,0,1,0,0)" fill="#ffffff" class="wordmark-text-0" data-fill-palette-color="quaternary" id="text-0"></path></svg></g></svg></g></svg></g></svg></g><g></g></svg></g></svg></g></svg></g></svg></g><defs></defs></svg><rect width="512" height="320" fill="none" stroke="none" visibility="hidden"></rect></g></svg></g></svg>